<mxfile host="app.diagrams.net" modified="2024-05-17T02:35:00.714Z" agent="Mozilla/5.0 (Windows NT 10.0; Win64; x64) AppleWebKit/537.36 (KHTML, like Gecko) Chrome/122.0.0.0 Safari/537.36 Edg/122.0.0.0" version="24.4.3" etag="4iOlYjRFBkLz1WAWkHPN" type="github">
  <diagram name="第 1 页" id="Tm_TkL7QEINfnqam8yMm">
    <mxGraphModel>
      <root>
        <mxCell id="0" />
        <mxCell id="1" parent="0" />
      </root>
    </mxGraphModel>
  </diagram>
</mxfile>
